<?xml version="1.0" standalone="no"?>
<!DOCTYPE svg PUBLIC "-//W3C//DTD SVG 20010904//EN"
 "http://www.w3.org/TR/2001/REC-SVG-20010904/DTD/svg10.dtd">
<svg version="1.0" xmlns="http://www.w3.org/2000/svg"
 width="893.000000pt" height="1010.000000pt" viewBox="0 0 893.000000 1010.000000"
 preserveAspectRatio="xMidYMid meet">

<g transform="translate(0.000000,1010.000000) scale(0.100000,-0.100000)"
fill="#000000" stroke="none">
<path d="M4402 9615 c-19 -26 -95 -92 -185 -158 -162 -121 -237 -195 -285
-280 -40 -70 -66 -160 -58 -203 4 -19 4 -34 1 -34 -3 0 -26 15 -53 34 -109 79
-256 104 -398 67 -109 -28 -147 -45 -231 -103 -83 -57 -144 -133 -180 -222
-22 -53 -25 -71 -20 -138 6 -88 28 -143 81 -200 40 -44 46 -45 68 -19 29 34
90 46 161 33 63 -12 142 -57 142 -81 0 -7 -53 -30 -130 -56 -163 -53 -300
-111 -435 -182 -399 -212 -646 -437 -924 -843 -210 -307 -256 -340 -413 -294
-37 11 -67 28 -94 55 -21 21 -48 39 -58 39 -21 0 -104 -110 -128 -170 -8 -19
-23 -52 -34 -73 -33 -61 -37 -88 -24 -155 17 -83 62 -208 92 -255 49 -78 131
-153 204 -187 100 -46 209 -53 295 -18 l60 24 12 -63 c34 -176 168 -451 308
-630 166 -213 440 -456 647 -572 31 -18 57 -38 57 -44 0 -19 -67 -264 -94
-347 -14 -41 -22 -78 -18 -81 4 -4 61 -3 127 1 66 5 198 12 293 15 169 8 172
7 172 -13 0 -44 -14 -47 -291 -60 -244 -12 -279 -15 -268 -26 4 -4 269 7 450
19 l97 6 -11 -46 c-8 -33 -16 -47 -31 -50 -12 -2 -115 -6 -230 -9 -186 -5
-229 -9 -215 -19 2 -2 105 0 229 4 124 4 227 5 228 4 2 -2 1 -17 -3 -33 -4
-19 -14 -32 -28 -36 -12 -3 -99 -6 -194 -6 -120 0 -174 -4 -179 -12 -5 -8 41
-10 189 -5 l197 7 0 -23 c0 -12 -4 -27 -8 -33 -4 -8 -71 -14 -189 -19 -101 -4
-183 -11 -183 -16 0 -5 83 -6 185 -2 l185 6 -10 -34 c-6 -19 -10 -35 -10 -36
0 -2 -69 -3 -154 -3 -93 0 -157 -4 -161 -10 -4 -7 50 -10 153 -10 l160 0 -8
-36 c-5 -19 -10 -37 -12 -39 -1 -2 -74 -5 -160 -7 l-158 -3 1 50 c2 95 -46
240 -113 338 -103 153 -270 279 -411 311 -79 18 -209 21 -239 5 -20 -11 -20
-9 -14 35 13 87 -55 239 -138 311 -95 80 -325 179 -352 151 -6 -6 -25 -49 -42
-96 -60 -167 -93 -228 -199 -367 -264 -343 -317 -449 -333 -665 -9 -125 -3
-175 39 -314 22 -75 95 -202 142 -248 16 -15 29 -32 29 -36 0 -4 -27 -10 -61
-13 -92 -8 -160 -47 -265 -152 -97 -96 -118 -129 -153 -235 -40 -124 -42 -266
-5 -400 9 -30 18 -68 21 -84 8 -43 78 -106 117 -106 35 0 56 15 56 41 0 44
172 144 267 155 36 5 60 2 86 -11 44 -21 180 -160 311 -320 55 -66 157 -177
228 -247 l129 -126 -17 -34 c-34 -65 -155 -239 -228 -326 -170 -202 -358 -336
-526 -376 -36 -8 -96 -22 -133 -31 -49 -12 -91 -15 -150 -10 -75 6 -172 22
-189 32 -4 2 10 19 30 38 80 71 114 280 65 387 -12 26 -43 71 -70 99 -115 124
-280 134 -421 26 -64 -50 -112 -116 -144 -199 -17 -45 -19 -66 -13 -141 10
-135 44 -216 171 -408 74 -112 226 -243 347 -299 126 -59 173 -72 287 -80 182
-13 356 -5 429 19 98 34 241 104 294 145 31 23 49 32 51 24 2 -7 9 -33 16 -58
11 -43 65 -147 132 -255 57 -92 123 -209 142 -252 10 -24 20 -43 22 -43 8 0
238 153 291 194 81 61 174 162 197 214 14 32 23 41 35 36 72 -30 115 -37 221
-37 110 0 119 1 205 36 122 50 207 109 262 182 63 82 92 151 100 230 6 62 8
66 27 60 372 -108 663 -149 1056 -148 277 0 429 14 646 58 126 26 256 66 280
86 11 9 14 6 14 -20 0 -45 45 -156 85 -211 53 -73 164 -171 230 -206 87 -45
147 -56 324 -58 l158 -1 44 -55 c62 -77 255 -229 373 -293 l98 -55 70 76 c57
62 82 99 138 216 38 77 76 171 85 208 24 106 19 103 89 44 108 -92 177 -118
431 -167 90 -17 130 -19 220 -14 126 8 326 52 396 89 86 44 208 137 263 200
158 179 207 362 157 586 -36 160 -88 240 -187 291 -64 32 -74 34 -168 34 -90
0 -105 -3 -141 -25 -55 -34 -71 -54 -111 -137 -27 -57 -34 -84 -34 -132 0 -87
33 -181 81 -228 21 -21 39 -41 39 -45 0 -13 -93 -55 -148 -67 -83 -17 -211
-14 -281 8 -115 36 -272 151 -426 313 -91 96 -136 151 -271 336 -41 56 -78
102 -82 102 -4 0 -18 -9 -32 -20 -22 -17 -23 -22 -12 -39 6 -12 12 -23 12 -25
0 -3 -26 -7 -57 -9 l-58 -3 62 -2 c56 -2 64 -5 82 -31 12 -16 21 -32 21 -36 0
-4 -52 -4 -115 0 -82 5 -115 4 -115 -4 0 -7 25 -11 68 -12 37 -1 95 -4 130 -8
58 -5 65 -9 84 -40 l22 -34 -210 6 c-115 3 -215 2 -222 -2 -14 -8 200 -21 354
-21 92 0 93 0 114 -30 l21 -30 -113 -1 c-62 -1 -207 -5 -323 -9 -209 -6 -208
-6 127 -8 l337 -2 20 -26 c12 -15 21 -30 21 -33 0 -4 -192 -12 -426 -19 -388
-11 -446 -14 -433 -26 2 -2 202 2 444 9 l440 12 27 -31 c14 -17 25 -32 23 -34
-1 -2 -251 -9 -555 -17 -303 -7 -554 -16 -557 -19 -9 -9 236 -7 716 5 l425 10
35 -36 36 -35 -110 0 c-61 0 -357 -7 -660 -15 -400 -11 -551 -12 -556 -4 -10
17 -27 3 -48 -40 -52 -102 -199 -146 -316 -97 -44 19 -39 28 25 41 98 20 500
213 720 345 470 283 935 764 1170 1213 l31 58 47 -7 c65 -9 194 -68 261 -119
71 -54 86 -72 106 -119 24 -56 44 -45 76 44 14 41 38 107 52 147 47 131 62
219 61 353 -1 108 -5 136 -28 207 -49 149 -159 262 -301 308 -45 15 -88 20
-171 20 l-111 0 -6 95 c-32 526 -563 1140 -1187 1373 -108 40 -376 111 -389
103 -5 -3 -14 52 -20 122 -19 212 -19 213 -1 206 46 -18 157 -34 241 -34 109
0 226 25 295 64 l44 24 22 -31 c35 -51 126 -147 197 -210 69 -60 259 -163 274
-148 5 5 12 37 17 72 11 87 74 259 123 336 14 22 38 80 54 129 41 130 37 289
-11 405 -6 13 7 20 60 38 118 39 215 110 272 198 30 46 63 152 77 241 8 53
-11 174 -37 230 -24 50 -94 131 -132 151 -24 13 -27 12 -47 -13 -28 -36 -80
-56 -161 -63 -62 -5 -73 -3 -133 26 -53 26 -69 40 -87 74 -88 175 -327 457
-572 677 -355 320 -713 546 -909 575 -26 4 -47 9 -47 12 0 11 30 60 47 75 24
22 94 47 136 49 38 1 175 -35 190 -50 6 -6 14 -11 18 -11 12 0 32 121 33 207
1 103 -16 162 -73 250 -105 162 -265 261 -460 283 -80 9 -97 8 -184 -14 -52
-13 -108 -31 -125 -40 -40 -21 -39 -21 -45 17 -16 99 -82 180 -253 307 -122
91 -208 179 -258 265 -21 36 -44 65 -50 65 -6 -1 -26 -21 -44 -45z m65 -44
l22 -38 -57 -6 c-31 -3 -58 -4 -60 -2 -5 4 59 85 67 85 3 0 16 -18 28 -39z
m62 -85 l22 -24 -98 -6 c-54 -4 -120 -9 -148 -13 l-50 -5 30 24 c51 42 67 47
146 48 67 0 78 -3 98 -24z m81 -84 l49 -39 -256 -7 c-140 -4 -257 -6 -259 -4
-1 2 18 18 44 35 51 35 133 49 296 52 76 1 79 0 126 -37z m104 -85 l29 -24
-183 -6 c-101 -4 -253 -7 -338 -7 l-155 0 23 25 c27 29 43 30 365 33 227 2
230 2 259 -21z m108 -83 c23 -20 45 -38 48 -41 5 -5 -863 8 -869 13 -3 2 6 15
19 29 23 24 24 25 234 28 116 1 281 3 368 5 l156 2 44 -36z m83 -74 c6 -5 19
-23 29 -41 l19 -32 -339 6 c-186 4 -414 7 -506 7 -184 0 -178 -2 -139 59 l15
24 456 -8 c250 -4 460 -11 465 -15z m-223 -87 l285 -6 11 -30 c7 -17 10 -32 8
-35 -6 -5 -1056 15 -1062 21 -3 3 -2 16 2 31 l6 26 232 0 c128 0 361 -3 518
-7z m759 -58 c74 -18 161 -60 177 -85 12 -20 10 -20 -160 -19 -95 1 -245 4
-333 8 l-160 6 45 26 c134 78 283 100 431 64z m-1756 -5 c12 -5 -24 -6 -85 -3
-58 3 -107 7 -109 9 -9 8 175 2 194 -6z m-57 -20 c125 -10 181 -24 197 -50 4
-7 -91 -10 -282 -10 -309 1 -306 0 -193 47 62 26 92 27 278 13z m1156 -8 l209
-7 -39 -27 -40 -28 -491 0 c-533 0 -503 -3 -503 53 l0 22 328 -3 c180 -2 421
-7 536 -10z m-877 -119 l43 -46 -128 6 c-70 4 -253 7 -407 7 l-280 1 42 39 42
40 323 0 322 0 43 -47z m953 2 l-34 -35 -431 0 -432 0 -11 25 c-7 14 -12 30
-12 35 0 6 181 10 477 10 l477 0 -34 -35z m806 15 c11 -10 57 -102 68 -137 7
-20 4 -21 -56 -19 -35 2 -330 3 -655 4 -520 2 -593 4 -593 17 0 8 -4 15 -10
15 -5 0 -10 -7 -10 -17 0 -15 -29 -16 -367 -10 -203 4 -504 7 -670 7 l-302 0
24 36 24 36 846 1 c670 2 845 -1 845 -10 0 -16 16 -17 26 -2 5 9 118 11 431 7
237 -3 426 -2 429 3 3 5 -95 9 -223 9 -125 0 -313 3 -416 7 l-188 6 33 35 33
34 360 -6 c198 -4 364 -11 371 -16z m-1266 -177 c0 -10 -3 -28 -6 -40 l-6 -23
-674 0 c-370 0 -675 3 -678 8 -2 4 2 22 9 40 l14 32 671 0 c631 0 670 -1 670
-17z m1348 2 c2 -1 5 -18 8 -36 l6 -34 -671 3 c-369 1 -671 6 -671 11 0 5 3
21 6 37 l5 29 657 -3 c361 -2 658 -5 660 -7z m-1370 -90 c2 -2 1 -17 -3 -34
l-7 -31 -217 0 c-120 0 -421 3 -669 7 l-452 6 0 35 0 35 672 -7 c370 -4 674
-9 676 -11z m1396 -17 c16 -63 56 -58 -486 -57 -271 1 -574 4 -673 8 l-180 6
-3 33 -3 32 669 0 670 0 6 -22z m-1426 -72 c3 -4 -1 -20 -10 -38 l-15 -32
-509 2 c-280 2 -545 5 -589 8 -44 3 -99 1 -123 -4 -41 -10 -44 -9 -53 15 -5
13 -9 34 -9 45 l0 21 651 -6 c358 -3 654 -8 657 -11z m975 -3 c427 -6 457 -7
457 -24 0 -49 34 -47 -660 -48 -356 -1 -650 2 -653 6 -3 4 -8 23 -12 41 l-7
32 209 0 c114 0 414 -3 666 -7z m-900 -71 c-21 -5 -25 2 -17 34 l7 29 13 -30
c10 -25 10 -31 -3 -33z m-110 -32 c-5 -19 -14 -20 -127 -20 -66 0 -166 -5
-221 -11 -55 -6 -197 -10 -315 -9 l-215 1 -44 30 -44 29 485 0 c481 0 486 0
481 -20z m138 -6 c5 -15 8 -29 5 -31 -7 -7 -76 9 -76 17 0 46 54 56 71 14z
m758 16 c269 -1 312 -3 286 -14 -17 -7 -36 -20 -44 -29 -12 -15 -59 -17 -487
-17 -261 0 -474 1 -474 3 0 1 -4 17 -10 36 l-10 34 212 -6 c116 -4 353 -7 527
-7z m-1605 -94 c-55 -12 -108 -25 -117 -29 -11 -4 -14 -2 -10 9 3 8 0 21 -7
29 -11 13 3 15 111 14 l124 -1 -101 -22z m767 18 l97 -7 15 -61 c9 -34 27
-100 40 -147 l24 -86 -227 5 c-259 5 -385 -5 -602 -48 -597 -120 -1051 -432
-1143 -786 -17 -66 -20 -204 -5 -204 6 0 10 28 10 65 0 92 16 159 61 250 167
340 664 609 1279 691 136 18 460 24 571 11 l66 -8 10 -42 9 -42 -235 0 c-247
-1 -370 -11 -586 -51 -650 -118 -1070 -428 -1092 -805 -9 -141 20 -192 126
-224 70 -21 123 -16 156 15 l22 21 18 -56 c21 -69 15 -105 -32 -199 -39 -77
-129 -178 -184 -206 -19 -10 -63 -23 -97 -30 -118 -21 -264 28 -315 105 -19
30 -45 50 -35 27 39 -94 224 -431 268 -491 105 -142 271 -299 385 -367 17 -9
17 -19 6 -160 -12 -158 -58 -474 -70 -486 -8 -9 -57 23 -151 97 -114 90 -140
108 -140 97 0 -12 147 -130 232 -187 51 -34 57 -40 51 -64 -3 -14 -7 -28 -9
-29 -6 -8 -144 81 -239 153 -196 149 -415 374 -534 548 -75 111 -196 387 -222
508 -6 28 -9 104 -8 170 4 114 -2 147 -15 94 -11 -45 -56 -99 -98 -118 -76
-35 -189 1 -303 98 -98 83 -145 197 -147 355 -1 86 24 191 56 236 14 18 15 18
26 -8 16 -35 60 -66 127 -89 142 -49 228 -6 366 181 39 52 94 127 122 165 29
39 65 90 80 115 77 124 274 325 439 450 508 381 1195 585 1827 544z m1008 -40
l-34 -36 -413 4 c-227 3 -414 7 -416 9 -2 2 -6 16 -10 31 l-6 28 452 2 c249 2
455 2 457 0 3 -1 -11 -18 -30 -38z m-42 -58 c2 -1 -3 -17 -10 -36 l-12 -33
-155 7 c-85 3 -259 9 -387 12 l-232 7 -11 30 -10 30 408 -8 c224 -4 408 -8
409 -9z m-290 -75 c133 -4 245 -10 249 -13 3 -4 4 -15 0 -24 -6 -14 -40 -16
-366 -12 -383 3 -379 3 -380 50 0 16 12 17 128 12 70 -3 236 -9 369 -13z m501
8 c64 -15 209 -84 312 -148 411 -255 902 -717 1092 -1027 57 -93 90 -125 157
-149 79 -28 201 -13 266 31 20 13 37 24 39 24 2 0 14 -24 27 -52 20 -45 24
-69 24 -163 0 -98 -3 -116 -27 -167 -14 -31 -38 -74 -52 -95 -40 -59 -141
-139 -241 -190 -49 -25 -91 -47 -93 -48 -1 -1 8 -31 20 -66 19 -54 22 -85 22
-194 -1 -150 -19 -241 -65 -324 -44 -81 -108 -226 -130 -299 l-20 -62 -30 17
c-45 27 -167 128 -223 187 -79 81 -125 146 -185 263 -31 59 -62 109 -69 111
-8 2 4 -30 26 -74 51 -102 74 -156 62 -149 -5 3 -47 -6 -92 -21 -109 -35 -279
-44 -382 -20 -147 35 -269 127 -324 244 -29 63 -48 174 -38 224 l7 37 43 -19
c120 -54 250 -49 380 13 188 90 296 248 296 431 0 55 -11 58 -62 16 -56 -46
-105 -63 -178 -62 -140 2 -290 92 -354 212 -34 65 -106 228 -106 241 0 4 16 2
35 -4 48 -14 146 4 196 38 100 66 127 183 79 348 -21 70 -120 216 -206 304
-59 59 -272 187 -342 205 -19 5 -22 13 -22 52 0 25 4 46 9 46 6 0 43 -15 83
-33 163 -75 360 -218 417 -303 17 -26 31 -52 31 -58 0 -6 4 -6 11 1 27 27 -96
159 -231 250 -90 60 -230 136 -282 153 -37 11 -38 13 -38 61 0 52 25 181 42
212 10 20 48 22 116 6z m-355 -79 c89 0 97 -2 97 -19 0 -53 14 -51 -355 -51
l-343 0 -11 31 c-6 18 -11 37 -11 42 0 7 88 8 263 4 144 -4 306 -7 360 -7z
m-215 -90 l302 0 0 -33 0 -34 -167 -6 c-224 -9 -491 -9 -497 1 -2 4 -7 25 -11
46 l-8 39 39 -6 c21 -4 175 -7 342 -7z m302 -136 l0 -47 -316 5 c-173 3 -317
8 -319 10 -3 3 -8 19 -11 36 l-6 31 98 4 c55 1 201 4 327 5 l227 2 0 -46z
m-748 -70 l86 -18 42 -151 c67 -242 228 -813 374 -1327 75 -263 136 -486 136
-496 0 -11 -27 -40 -65 -70 -36 -29 -86 -79 -112 -111 l-47 -59 -47 33 c-132
91 -265 253 -309 377 -10 29 -25 57 -32 62 -8 5 -62 5 -120 1 l-105 -7 -38
-74 c-50 -98 -176 -232 -292 -311 -137 -94 -120 -93 -191 -8 -34 40 -62 79
-62 86 0 7 76 351 170 763 232 1028 280 1254 280 1309 l0 30 123 -5 c67 -3
161 -14 209 -24z m-437 -21 c-4 -21 -8 -39 -10 -41 -1 -2 -83 1 -181 5 l-179
8 95 22 c126 30 186 41 239 42 l43 1 -7 -37z m1118 31 l77 -7 0 -39 0 -39
-197 6 c-109 3 -248 8 -310 11 l-112 6 -10 30 c-6 17 -11 33 -11 34 0 7 485 4
563 -2z m-1205 -90 c60 -5 72 -9 68 -21 -3 -8 -6 -21 -6 -29 0 -12 -40 -14
-267 -12 -186 2 -267 6 -270 14 -2 6 27 23 64 37 64 25 75 26 203 21 74 -2
168 -7 208 -10z m1279 -9 c2 -1 6 -16 9 -33 l7 -32 -301 0 c-166 0 -303 3
-305 8 -3 4 -8 22 -12 40 l-7 33 304 -7 c166 -4 304 -8 305 -9z m-1787 -62 c0
-35 -49 -220 -85 -318 -73 -204 -241 -513 -315 -580 -11 -10 -20 -28 -21 -39
-1 -12 -7 12 -15 52 -13 73 -28 106 -64 142 -19 19 -20 19 -62 -5 -60 -35 -81
-32 -122 17 -30 35 -36 49 -36 89 0 184 235 428 580 601 63 32 121 58 128 58
6 0 12 -8 12 -17z m557 -17 c1 -1 -2 -19 -8 -40 l-11 -38 -253 3 c-139 2 -255
6 -258 9 -2 3 -2 22 0 42 l5 37 262 -6 c143 -3 262 -7 263 -7z m1419 -3 c233
-79 454 -322 454 -499 -1 -135 -114 -218 -251 -183 -63 16 -54 0 -170 309 -64
168 -116 390 -92 390 5 0 32 -8 59 -17z m-172 -19 c4 -14 6 -28 4 -29 -2 -1
-134 -5 -295 -7 -306 -5 -303 -5 -303 37 0 18 27 20 336 23 l252 3 6 -27z m9
-51 c3 -5 8 -22 11 -39 l7 -32 -286 -7 c-160 -4 -290 -3 -295 1 -4 5 -11 24
-15 41 l-7 33 274 3 c150 1 281 3 290 5 9 1 19 -1 21 -5z m-1371 -23 l89 0 -3
-27 c-3 -25 -7 -28 -48 -31 -25 -2 -141 -1 -257 3 -211 7 -213 7 -213 29 0 13
3 26 8 31 4 4 81 5 171 1 90 -3 204 -6 253 -6z m1398 -69 c0 -5 3 -23 6 -40
l7 -31 -292 0 -291 0 -6 25 c-4 14 -4 29 -1 32 4 3 127 9 274 13 147 4 276 7
286 8 9 1 17 -2 17 -7z m-1464 -8 l141 -6 -6 -31 -7 -31 -263 -3 -263 -2 7 32
c4 18 9 36 12 41 5 9 189 9 379 0z m1493 -104 c6 -18 11 -36 11 -40 0 -5 -131
-9 -290 -9 l-290 0 -10 26 c-22 56 -34 54 279 54 l289 0 11 -31z m-1552 14
l180 -6 -5 -24 -4 -23 -269 0 -268 0 10 30 11 30 82 0 c46 0 164 -3 263 -7z
m161 -78 c2 -1 0 -14 -4 -29 l-6 -26 -274 0 -274 0 11 26 c5 15 12 30 14 34 4
6 526 1 533 -5z m1416 -19 c3 -13 8 -30 11 -38 5 -12 -42 -16 -281 -26 -158
-7 -290 -9 -293 -6 -3 3 -11 23 -17 44 l-12 40 197 3 c108 1 239 3 292 5 95 2
97 1 103 -22z m-1438 -88 c-3 -18 -11 -35 -17 -39 -14 -8 -549 -23 -556 -15
-4 3 2 24 12 46 l18 40 275 0 275 0 -7 -32z m1468 -2 c3 -13 9 -31 12 -40 6
-15 -21 -16 -292 -14 l-299 3 -3 23 c-2 12 -2 23 0 23 2 1 120 7 263 14 143 6
272 12 286 13 21 2 28 -4 33 -22z m-1489 -88 c-4 -18 -10 -36 -14 -39 -3 -4
-137 -9 -298 -12 l-292 -6 16 34 17 35 75 1 c77 2 422 14 474 17 27 2 28 0 22
-30z m1523 -13 c7 -14 12 -30 12 -34 0 -8 -587 -27 -595 -20 -2 2 -6 21 -10
42 l-7 37 294 0 295 0 11 -25z m-1542 -67 c-3 -13 -6 -31 -6 -40 0 -17 -21
-18 -310 -18 l-311 0 16 30 c9 17 17 31 18 31 1 1 124 5 272 8 149 4 283 8
299 9 25 2 28 -1 22 -20z m1578 -20 c5 -15 8 -29 5 -32 -2 -2 -139 -5 -303 -7
l-300 -4 -7 28 -7 27 61 1 c34 1 150 5 257 9 286 10 283 10 294 -22z m31 -84
c8 -20 15 -40 15 -45 0 -5 -138 -9 -309 -9 l-309 0 -6 23 c-16 60 -29 56 242
60 136 1 271 3 299 5 52 2 53 1 68 -34z m-1631 -1 c-4 -16 -9 -31 -13 -35 -3
-4 -152 -10 -330 -14 l-323 -7 23 41 24 42 313 0 312 0 -6 -27z m-20 -85 c-3
-13 -9 -25 -11 -28 -3 -3 -157 -6 -344 -8 l-340 -3 16 25 c20 30 32 31 433 34
l253 2 -7 -22z m1699 -23 l17 -35 -319 0 -319 0 -11 31 c-6 18 -11 34 -11 35
0 2 141 4 313 4 l313 0 17 -35z m-1717 -57 c-3 -17 -8 -33 -10 -35 -2 -2 -169
-6 -371 -10 l-369 -6 28 36 28 37 232 3 c127 1 284 3 350 5 l119 2 -7 -32z
m1559 2 l182 0 12 -26 c6 -15 10 -28 9 -29 -2 -2 -148 -7 -325 -11 -218 -5
-323 -4 -323 3 0 6 -3 25 -7 43 l-6 33 138 -6 c76 -4 220 -7 320 -7z m-1579
-82 c-3 -13 -6 -26 -6 -30 0 -5 -176 -8 -391 -8 -353 0 -391 2 -385 16 3 9 6
20 6 25 0 8 130 12 559 17 l223 2 -6 -22z m1818 -29 c15 -22 26 -42 24 -44 -2
-2 -154 -5 -338 -6 l-335 -1 -13 32 c-7 18 -11 34 -9 36 2 2 140 7 308 12 167
5 311 10 320 10 9 1 28 -16 43 -39z m-1834 -41 c0 -7 -3 -23 -6 -35 l-6 -23
-399 0 -399 0 17 35 17 35 388 0 c304 0 388 -3 388 -12z m1913 -56 l38 -39
-242 -6 c-318 -9 -497 -9 -502 1 -3 4 -8 22 -12 39 l-7 33 269 3 c147 1 302 3
343 5 l76 2 37 -38z m-2020 -20 l89 -4 -7 -37 c-4 -20 -8 -37 -10 -39 -2 -2
-190 0 -418 4 l-415 7 25 39 26 38 311 -1 c171 -1 351 -4 399 -7z m2155 -80
l83 -43 -21 -28 c-19 -28 -24 -29 -122 -35 -237 -13 -722 -26 -729 -19 -4 5
-10 22 -13 39 l-7 31 83 6 c46 4 209 7 363 8 154 1 307 5 340 9 34 5 -125 6
-367 4 l-427 -5 -7 26 c-3 14 -4 28 -2 31 4 3 721 23 738 20 3 -1 42 -20 88
-44z m-2093 -23 c3 -4 3 -18 -1 -33 l-6 -26 -447 0 c-258 0 -452 -4 -461 -10
-12 -8 -11 -12 7 -32 56 -59 104 -227 119 -408 7 -100 4 -105 -53 -71 -50 31
-165 144 -229 226 -56 71 -134 191 -134 205 0 4 34 10 75 12 89 6 173 43 249
110 l48 43 413 -5 c227 -3 416 -8 420 -11z m2489 -106 c-52 -107 -220 -238
-332 -259 l-33 -7 26 68 c14 38 45 107 69 155 37 73 42 88 29 96 -9 6 22 10
94 11 59 1 122 5 138 10 41 13 43 -4 9 -74z m-2505 21 c2 -2 0 -18 -5 -36
l-10 -33 -400 -3 -400 -2 -30 43 -31 43 436 -4 c240 -2 438 -6 440 -8z m2131
-23 c0 -5 -9 -19 -19 -32 l-19 -24 -373 -6 c-206 -4 -378 -3 -382 1 -5 4 -7
16 -5 26 3 18 24 20 318 30 437 15 480 15 480 5z m-2157 -104 c-3 -18 -6 -33
-7 -34 -1 -1 -170 -3 -375 -5 l-374 -3 -13 37 -13 38 382 2 c210 2 387 1 394
0 8 -3 10 -15 6 -35z m2098 -12 l-16 -45 -346 0 -347 0 -10 40 -10 40 272 3
c149 1 317 3 372 5 l102 2 -17 -45z m-2117 -72 c-15 -69 21 -63 -365 -63 -193
0 -349 4 -349 9 0 5 -3 22 -6 39 l-6 31 153 4 c85 1 250 4 367 5 l212 2 -6
-27z m2089 -33 c-5 -34 -3 -40 12 -40 10 0 16 -2 13 -5 -8 -8 -147 24 -180 41
-34 18 -35 18 -41 -6 -5 -19 -14 -20 -230 -20 -124 0 -228 3 -230 8 -2 4 -7
19 -11 35 l-6 27 339 0 339 0 -5 -40z m-2361 -50 c240 0 248 -1 248 -20 0 -10
-8 -24 -18 -29 -11 -6 -155 -11 -340 -13 l-322 -3 0 39 0 39 92 -7 c50 -3 203
-6 340 -6z m2153 -27 c-4 -16 -9 -30 -11 -33 -3 -2 -97 -6 -208 -8 l-203 -4
-6 23 c-14 51 -21 49 214 49 l221 0 -7 -27z m-1037 -71 c59 -144 182 -294 312
-382 19 -13 37 -25 39 -26 2 -2 -17 -36 -42 -76 -25 -40 -67 -117 -93 -171
-44 -94 -48 -99 -73 -93 -61 13 -303 45 -391 51 -52 3 -125 2 -162 -3 -62 -8
-67 -7 -76 13 -5 11 -46 77 -91 145 l-82 124 23 18 c13 10 53 36 89 58 139 82
268 214 332 337 l32 63 80 0 80 0 23 -58z m-889 -14 c-5 -18 -9 -34 -9 -35 0
-2 -144 -3 -320 -3 l-320 0 0 35 0 35 329 0 330 0 -10 -32z m1929 -10 l3 -38
-199 0 -200 0 -11 31 c-6 18 -11 33 -11 35 0 6 134 10 275 10 l140 -1 3 -37z
m-2082 -48 l141 0 -6 -32 -7 -33 -306 -3 -306 -2 -5 32 c-2 18 -2 37 1 42 3 5
78 6 176 3 94 -4 235 -7 312 -7z m2100 -36 c8 -20 13 -39 10 -41 -3 -3 -98 -8
-211 -11 l-205 -5 0 47 0 46 196 0 195 0 15 -36z m-1923 -96 c17 -21 29 -40
26 -42 -2 -2 -158 -1 -346 2 l-343 5 0 39 0 38 316 -2 317 -3 30 -37z m1962 1
c9 -17 15 -33 12 -35 -2 -2 -127 -3 -276 -2 l-273 3 54 32 53 31 207 1 207 1
16 -31z m49 -89 l26 -40 -350 0 c-195 0 -350 4 -350 9 0 5 15 20 34 35 l34 26
229 3 c125 1 256 3 289 5 l61 2 27 -40z m-1944 3 l22 -28 -23 -2 c-13 -1 -183
-4 -376 -5 l-353 -3 0 32 0 33 354 0 355 0 21 -27z m64 -77 c14 -19 26 -37 26
-40 0 -8 -526 -7 -693 1 l-137 6 0 28 0 29 383 3 c210 1 385 3 388 5 4 1 18
-13 33 -32z m1951 -6 c26 -25 30 -35 27 -70 l-4 -40 -444 0 -444 0 22 35 23
35 418 0 c264 0 416 4 412 10 -3 5 -161 9 -402 10 -218 0 -399 3 -401 5 -3 3
3 14 13 25 17 19 30 20 384 20 l365 0 31 -30z m-2089 -60 c176 0 184 -1 194
-21 7 -11 9 -23 6 -26 -5 -5 -868 -23 -873 -19 -1 1 0 19 4 41 l6 38 240 -6
c132 -4 323 -7 423 -7z m238 -95 c9 -14 15 -25 14 -26 -5 -2 -933 -47 -935
-45 -1 1 1 20 4 44 l6 42 346 3 c190 1 392 3 447 5 99 2 102 1 118 -23z m1886
-10 l0 -35 -475 0 -476 0 12 23 c6 12 16 28 22 35 7 9 112 12 463 12 l454 0 0
-35z m-1831 -70 c13 -20 22 -37 20 -39 -4 -3 -1003 -35 -1007 -31 -1 1 1 15 4
32 l6 29 451 21 c249 11 463 21 477 21 18 1 31 -8 49 -33z m1829 9 c6 -2 12
-17 12 -34 l0 -30 -500 0 c-275 0 -500 2 -500 5 0 2 8 20 17 40 l17 35 470 -6
c259 -3 477 -7 484 -10z m-1770 -103 c12 -21 22 -41 22 -45 0 -3 -111 -6 -247
-6 -212 0 -249 2 -264 16 -18 16 -44 11 -34 -7 4 -5 -100 -9 -265 -9 l-272 0
7 27 c4 16 7 28 8 29 1 1 223 8 492 16 270 8 499 16 511 16 14 2 27 -10 42
-37z m1786 13 c3 -9 6 -27 6 -40 l0 -24 -260 0 c-253 0 -260 1 -260 20 0 11
-4 20 -10 20 -5 0 -14 -9 -20 -20 -10 -19 -21 -20 -255 -20 -149 0 -245 4
-245 10 0 5 5 20 12 34 l11 26 386 3 c212 1 441 3 507 5 103 2 123 0 128 -14z
m-1304 -49 c113 -16 200 -34 200 -41 0 -3 -7 -21 -15 -40 l-15 -36 -92 7 c-51
4 -115 11 -143 16 -27 5 -111 12 -186 16 l-136 6 -21 43 -21 43 42 4 c71 8
276 -2 387 -18z m727 -37 c-2 -7 -10 -30 -18 -50 l-13 -38 -239 0 -239 0 6 25
c3 13 11 36 16 50 l10 25 241 0 c189 0 240 -3 236 -12z m369 2 l222 0 4 -44
c4 -56 17 -54 -276 -48 l-226 5 -10 36 c-17 60 -14 64 28 57 20 -3 137 -6 258
-6z m-2111 -37 c-4 -21 -9 -41 -11 -45 -3 -5 -124 -8 -270 -8 l-264 0 6 28
c15 68 -12 62 281 62 l265 0 -7 -37z m588 2 c9 -20 17 -38 17 -40 0 -3 -108
-5 -239 -5 l-240 0 -25 33 c-15 19 -26 37 -26 40 0 4 112 7 248 7 l248 0 17
-35z m2049 -59 c561 -154 1082 -614 1262 -1116 35 -95 54 -189 62 -295 l7 -83
-39 -11 c-21 -6 -46 -15 -54 -20 -31 -21 3 -23 98 -7 119 20 177 20 263 2 235
-50 364 -250 346 -531 -7 -94 -42 -253 -74 -325 l-18 -42 -35 51 c-62 92 -174
150 -307 158 -81 6 -83 5 -108 -23 -25 -29 -70 -97 -164 -250 -28 -45 -82
-125 -122 -179 -82 -114 -350 -419 -388 -442 -14 -9 -46 -35 -71 -58 -237
-221 -575 -434 -1010 -637 -102 -47 -195 -89 -207 -92 -11 -4 -27 -13 -33 -21
-10 -12 -17 -11 -47 12 -39 30 -53 22 -53 -30 0 -16 -4 -26 -9 -22 -6 3 -54
-8 -108 -24 -508 -151 -1217 -141 -1798 25 -82 24 -125 41 -136 56 -14 17 -19
19 -39 8 -17 -9 -21 -18 -17 -40 l6 -28 -677 -6 c-372 -3 -873 -8 -1112 -11
l-435 -4 88 19 c49 10 107 28 130 41 l42 21 755 -7 c437 -4 789 -12 835 -18
131 -17 244 -14 290 8 22 11 41 28 43 37 2 12 -1 16 -11 12 -19 -7 -205 81
-283 133 -32 22 -74 48 -91 57 -43 22 -43 40 2 257 19 94 35 172 35 175 0 11
33 0 120 -40 239 -111 640 -214 1040 -267 206 -27 628 -37 834 -20 283 24 625
120 878 247 105 53 318 192 392 256 27 24 65 54 85 67 57 39 203 165 244 210
161 179 273 398 333 656 26 112 28 135 28 330 0 193 -2 219 -26 322 -15 62
-43 152 -63 200 -20 49 -40 99 -43 113 -7 26 -99 154 -165 230 -55 63 -140
134 -218 180 -67 40 -228 100 -268 100 -15 0 -23 9 -30 38 -123 472 -151 593
-151 661 0 11 83 -3 192 -33z m-758 -426 c3 -19 12 -63 20 -97 7 -34 11 -65 8
-68 -3 -3 -25 -5 -49 -5 -66 0 -173 -27 -281 -72 -53 -21 -119 -47 -147 -57
-27 -10 -88 -37 -135 -61 -47 -24 -113 -53 -148 -66 -35 -14 -90 -38 -122 -54
-33 -17 -69 -30 -81 -30 -12 0 -49 25 -87 61 -84 78 -146 118 -285 181 -62 28
-143 66 -181 85 -71 36 -317 181 -349 207 -17 13 -16 22 14 187 18 96 34 176
36 178 2 3 13 -5 26 -17 60 -56 310 -181 434 -217 182 -53 600 -74 895 -46
164 16 214 28 296 69 98 50 106 84 27 107 l-35 10 33 65 32 65 37 -195 c20
-107 39 -211 42 -230z m-3528 371 c77 -37 111 -60 150 -104 53 -58 104 -163
104 -215 -1 -90 -55 -206 -133 -282 l-31 -30 28 0 c34 0 113 77 140 138 17 37
24 42 68 51 143 31 311 -19 457 -138 48 -39 147 -164 178 -226 46 -90 73 -202
73 -302 l0 -95 -64 60 c-218 203 -473 178 -634 -62 -97 -146 -145 -332 -145
-566 0 -274 70 -535 194 -725 l48 -74 -17 -46 c-9 -25 -19 -45 -23 -45 -13 0
-106 133 -148 210 -52 96 -115 287 -137 415 -11 65 -17 152 -17 250 1 410 165
736 421 836 83 33 214 33 300 0 74 -28 94 -23 25 7 -247 106 -508 -18 -652
-310 -204 -414 -138 -1007 152 -1376 l49 -63 -42 -97 c-49 -112 -112 -239
-132 -265 -12 -16 -26 -5 -158 130 -80 81 -185 195 -234 253 -48 57 -140 159
-204 225 -102 106 -123 123 -166 135 -60 17 -150 4 -223 -32 -48 -23 -156
-120 -165 -148 -10 -29 -27 4 -45 85 -27 123 -24 291 6 380 30 89 60 132 154
222 84 82 147 116 249 134 61 11 73 10 98 -4 30 -18 110 -23 110 -7 0 5 -17
14 -38 19 -70 19 -180 155 -215 266 -20 62 -37 197 -37 290 1 205 99 438 255
605 72 76 197 245 229 308 36 70 59 166 51 208 -8 45 1 44 121 -15z m1629 17
c-4 -18 -11 -37 -15 -41 -4 -5 -123 -6 -264 -2 -226 7 -256 10 -256 24 1 38
12 40 200 44 102 1 220 3 263 5 l79 2 -7 -32z m649 3 l15 -28 -91 -7 c-177
-12 -285 -8 -327 13 -20 11 -43 27 -50 35 -12 14 8 16 213 16 l225 0 15 -29z
m1712 15 c1 0 4 -13 8 -28 l6 -28 -240 -1 c-132 -1 -245 -2 -252 -3 -7 -1 -15
13 -19 31 -6 30 -4 32 25 36 25 3 468 -3 472 -7z m-663 -31 l-17 -35 -225 6
c-124 4 -227 8 -229 9 -1 1 2 14 7 29 l11 26 235 0 235 0 -17 -35z m-730 -15
c114 -8 207 -24 207 -35 0 -4 -17 -90 -26 -134 l-5 -24 -142 7 c-168 8 -214
14 -220 30 -3 6 -21 46 -41 89 l-35 77 67 0 c37 0 124 -5 195 -10z m-258 -90
c19 -38 31 -70 27 -70 -9 0 -188 48 -282 76 -30 9 -71 23 -90 33 l-35 16 70 6
c39 3 116 6 172 7 l103 2 35 -70z m822 59 c70 -6 129 -12 131 -14 1 -1 -3 -15
-10 -30 l-13 -28 -125 7 c-69 3 -167 6 -218 6 l-92 0 6 28 c4 15 9 30 11 35 6
10 162 9 310 -4z m-1553 -9 c2 -3 2 -17 -1 -32 l-5 -28 -265 0 -265 0 6 23 c3
12 6 28 6 36 0 11 45 13 259 9 143 -2 262 -6 265 -8z m2400 -12 c13 -50 21
-48 -244 -48 -240 0 -250 1 -250 19 0 11 -3 26 -6 35 -6 14 20 16 244 16 l250
0 6 -22z m-619 -70 c-19 -11 -30 -5 -21 11 4 6 14 7 22 4 15 -5 14 -7 -1 -15z
m-176 4 l53 -7 -18 -22 c-25 -30 -114 -43 -298 -43 -122 0 -137 2 -132 16 3 9
6 27 6 40 l0 24 168 -1 c92 -1 191 -4 221 -7z m811 -1 c0 -5 3 -23 6 -40 l7
-31 -252 0 c-194 0 -251 3 -251 13 0 6 -3 22 -6 34 -6 21 -3 22 82 26 177 7
414 5 414 -2z m-2435 -33 c-4 -18 -10 -36 -14 -40 -3 -3 -122 -8 -263 -10
-191 -3 -258 -1 -258 8 0 6 3 26 6 43 l7 31 264 0 265 0 -7 -32z m2458 -85 c3
-16 5 -29 4 -30 -1 0 -113 -4 -248 -8 l-246 -8 -6 24 c-14 51 -23 49 242 49
l249 0 5 -27z m-2478 -10 c-4 -16 -7 -28 -8 -29 -1 -1 -122 -4 -269 -7 l-266
-6 9 32 c5 17 9 33 9 34 0 2 120 3 266 3 l266 0 -7 -27z m-15 -65 c0 -13 -4
-28 -8 -34 -5 -8 -95 -14 -274 -19 l-267 -7 9 33 c6 19 10 35 10 36 0 2 116 4
258 6 141 1 260 3 265 5 4 1 7 -8 7 -20z m2513 -5 c3 -16 2 -31 -2 -36 -4 -4
-117 -6 -252 -5 l-244 3 -3 27 -3 27 103 4 c57 1 169 4 249 5 l147 2 5 -27z
m-2202 -151 c47 -28 182 -98 300 -156 202 -98 327 -178 379 -240 28 -35 51
-35 122 0 37 19 96 45 130 58 35 13 101 42 148 66 47 24 108 51 135 61 28 10
94 36 148 58 97 40 200 66 289 74 46 4 57 -4 58 -44 0 -4 -42 -17 -92 -30 -51
-12 -138 -40 -193 -62 -55 -21 -137 -52 -182 -68 -101 -36 -277 -126 -406
-207 l-99 -62 -71 59 c-88 71 -157 117 -312 208 -66 38 -162 95 -212 127 -107
65 -321 176 -340 176 -14 0 -16 16 -7 72 l6 37 57 -38 c31 -20 95 -61 142 -89z
m2226 60 l10 -39 -250 -7 c-138 -4 -253 -3 -257 1 -4 4 -10 23 -13 40 l-6 33
222 3 c122 1 236 3 253 5 29 2 32 -1 41 -36z m-2555 2 c-2 -14 -10 -28 -18
-31 -7 -2 -131 -10 -277 -16 l-264 -12 10 37 c9 37 10 37 66 41 31 2 153 4
272 5 l216 2 -5 -26z m-16 -70 c-3 -9 -6 -21 -6 -28 0 -10 -60 -16 -242 -25
-134 -6 -260 -14 -282 -18 -38 -5 -39 -5 -32 23 4 16 10 32 14 36 6 6 309 23
481 26 63 2 72 0 67 -14z m2592 4 c7 -7 12 -19 12 -28 0 -18 -10 -19 -376 -36
l-141 -7 -6 29 c-3 16 -4 30 -2 32 2 2 110 7 242 11 131 4 243 9 249 9 5 1 15
-3 22 -10z m-2425 -69 c54 -28 499 -288 511 -299 8 -8 66 -175 66 -191 0 -4
-34 -15 -76 -24 -166 -37 -401 -189 -465 -301 l-32 -56 19 -33 c11 -18 30 -48
44 -66 30 -42 177 -189 188 -189 5 0 43 -19 84 -43 42 -24 101 -49 132 -57
l56 -13 0 -41 c0 -49 31 -164 63 -238 31 -69 99 -152 179 -216 35 -28 83 -76
107 -107 39 -49 71 -70 71 -47 0 5 31 44 68 88 197 230 251 342 239 504 l-5
77 54 1 c105 1 211 50 337 155 54 45 147 163 147 187 -1 8 -48 67 -106 130
-146 159 -266 233 -402 247 -29 3 -55 10 -58 14 -13 21 24 62 76 84 30 13 107
46 170 73 132 57 438 167 445 160 3 -3 39 -175 80 -384 40 -208 139 -713 220
-1122 80 -408 146 -750 148 -760 3 -27 -261 -162 -416 -213 -317 -104 -903
-134 -1437 -73 -375 43 -773 134 -988 227 -60 27 -72 35 -68 52 9 40 496 2484
496 2489 0 10 9 7 53 -15z m2452 -30 c4 -17 5 -33 2 -35 -4 -5 -509 -23 -514
-19 -2 1 -6 16 -9 33 l-6 32 48 1 c27 1 101 5 164 9 63 3 159 7 212 8 l96 2 7
-31z m23 -99 l10 -40 -267 2 -266 3 -3 32 -3 33 168 3 c92 1 209 4 259 5 l92
2 10 -40z m23 -94 c5 -17 7 -31 5 -33 -1 -1 -120 -6 -264 -9 -220 -6 -262 -5
-266 7 -2 8 -7 26 -10 42 l-6 27 267 -2 267 -3 7 -29z m162 -17 c228 -117 420
-363 502 -645 79 -273 71 -628 -20 -844 -27 -65 -98 -178 -102 -164 -1 5 -92
362 -203 794 -111 432 -208 806 -215 833 -8 26 -12 47 -9 47 3 0 24 -10 47
-21z m-150 -46 c2 -5 7 -24 11 -44 l6 -37 -267 6 c-148 2 -268 5 -269 6 -1 0
-4 16 -7 33 l-6 32 147 4 c343 7 381 7 385 0z m-1911 -63 l33 -20 -31 0 c-23
0 -33 5 -37 20 -6 25 -5 25 35 0z m1941 -63 c5 -16 7 -30 5 -33 -3 -2 -125 -7
-271 -11 -258 -6 -267 -6 -267 13 0 10 -3 29 -6 42 l-6 22 267 -2 268 -3 10
-28z m-1820 -7 l52 -30 -60 1 c-86 2 -116 10 -126 37 -8 21 -6 22 37 22 31 0
60 -9 97 -30z m88 -50 c3 0 28 -16 55 -35 l49 -35 -138 0 -138 0 -15 35 c-7
19 -14 37 -14 39 0 3 44 3 98 0 53 -2 100 -4 103 -4z m1757 -32 l8 -33 -268
-9 c-148 -4 -271 -7 -272 -5 -2 2 -7 18 -11 36 l-6 32 128 4 c70 1 192 4 270
5 l142 2 9 -32z m-1444 -32 c-4 -11 -17 -16 -43 -15 l-36 1 40 18 c44 21 48
20 39 -4z m-2034 -10 c0 -84 -72 -523 -122 -746 -55 -247 -164 -609 -178 -594
-22 24 -119 378 -141 519 -21 129 -16 364 10 460 56 212 175 342 341 374 78
15 90 14 90 -13z m125 -50 l50 -36 -70 0 -70 0 3 45 c4 51 3 51 87 -9z m487 8
c-2 -16 -7 -32 -10 -36 -4 -4 -69 -10 -144 -14 -76 -4 -138 -10 -138 -13 0 -4
63 -5 140 -3 l141 4 -7 -28 c-4 -16 -8 -30 -9 -32 -1 -1 -128 -5 -282 -9
l-279 -6 4 36 4 37 82 0 c75 -1 84 -3 116 -30 19 -17 39 -30 46 -30 14 0 24
45 24 106 l0 43 148 3 c81 2 152 3 157 2 6 0 8 -14 7 -30z m916 -4 l10 -40
-157 0 -156 1 59 31 c61 31 118 45 192 47 40 1 42 0 52 -39z m336 15 c14 -10
26 -11 36 -5 15 10 120 14 120 5 0 -2 -5 -16 -12 -30 l-11 -25 -208 0 c-196 0
-209 1 -219 19 -5 11 -10 28 -10 38 0 17 10 18 142 15 98 -3 147 -8 162 -17z
m428 -21 c43 -14 80 -30 83 -35 4 -5 -63 -9 -164 -9 -94 0 -171 3 -171 6 0 3
12 21 27 40 26 35 27 36 87 29 34 -3 96 -18 138 -31z m1201 29 c3 -5 8 -23 12
-40 l7 -33 -275 0 -275 0 -6 23 c-12 45 -10 46 92 50 211 7 441 7 445 0z
m-1937 -94 c4 -8 9 -8 17 0 11 11 417 17 417 7 0 -3 -4 -16 -10 -30 l-10 -26
-432 0 -433 1 35 29 35 29 187 1 c124 0 189 -4 194 -11z m904 -27 l35 -27
-239 -3 c-132 -1 -244 2 -248 6 -5 5 -3 21 4 37 l13 28 199 -7 c197 -7 201 -7
236 -34z m1061 12 c5 -15 7 -30 3 -33 -3 -3 -128 -7 -279 -9 l-273 -3 -4 30
c-3 17 -2 33 0 36 3 3 126 5 274 5 l268 0 11 -26z m-1334 -60 l321 -6 34 -28
c18 -15 31 -30 28 -32 -3 -2 -355 -2 -784 0 l-778 4 36 37 35 36 393 -2 c216
-1 538 -5 715 -9z m-1607 -11 c-1 -46 -4 -46 -296 -51 -259 -4 -277 -4 -271
12 4 10 7 24 7 31 0 16 57 19 378 23 167 2 182 1 182 -15z m2965 -30 l7 -33
-281 0 c-218 0 -281 3 -281 13 0 6 -3 22 -6 34 l-6 23 273 2 c151 2 277 1 280
-2 4 -3 10 -20 14 -37z m-2979 -45 c-3 -7 -7 -25 -10 -40 l-6 -28 -275 0
c-291 0 -282 -2 -269 47 6 22 11 23 143 26 369 8 420 7 417 -5z m1403 2 c333
0 612 -4 619 -9 9 -5 11 -17 7 -34 l-7 -27 -802 7 c-517 4 -806 9 -814 16 -10
8 -8 15 10 35 l23 25 179 -7 c99 -3 452 -6 785 -6z m1594 -17 c2 -5 7 -20 11
-35 l6 -27 -282 6 c-189 4 -285 10 -290 17 -4 6 -8 19 -8 29 0 16 20 17 279
17 154 0 282 -3 284 -7z m-998 -74 c2 -3 -8 -19 -23 -35 l-27 -30 -726 4 -726
3 -32 29 c-17 16 -31 33 -31 37 0 8 1556 0 1565 -8z m-2025 -21 c0 -13 -4 -28
-8 -34 -5 -7 -100 -13 -281 -18 -249 -6 -273 -5 -267 9 3 9 6 28 6 41 l0 24
275 0 275 0 0 -22z m3043 12 c2 -3 7 -15 11 -26 7 -22 4 -22 -166 -29 -95 -3
-225 -5 -288 -3 l-114 3 -7 34 -7 33 283 -3 c156 -2 285 -6 288 -9z m-1122
-110 l-44 -40 -188 0 -189 0 -6 25 c-3 14 -11 25 -16 25 -6 0 -7 -11 -4 -25
l6 -25 -224 0 c-210 0 -225 1 -219 18 6 16 5 16 -14 0 -17 -16 -43 -18 -209
-18 l-190 0 -39 40 -39 40 709 0 710 -1 -44 -39z m1153 14 c4 -15 4 -29 1 -32
-4 -5 -567 -22 -571 -18 -1 1 -4 16 -7 33 l-6 33 182 3 c100 1 230 3 288 5
l107 2 6 -26z m-3093 -16 l-7 -33 -272 -3 c-289 -2 -279 -4 -266 46 l6 22 273
0 272 0 -6 -32z m3117 -78 l10 -40 -293 0 -293 0 -6 23 c-13 48 -19 46 222 50
125 1 255 3 288 5 l62 2 10 -40z m-3133 -2 c-4 -18 -9 -35 -11 -37 -2 -2 -126
-6 -275 -9 l-272 -5 6 24 c4 13 7 30 7 36 0 10 61 13 253 16 138 1 262 3 275
5 22 2 23 -1 17 -30z m1019 10 c-39 -68 -43 -70 -108 -63 -73 8 -140 28 -181
55 l-30 20 163 0 c128 0 162 -3 156 -12z m514 -21 c7 -18 12 -37 12 -42 0 -7
-150 -3 -416 11 l-112 7 17 28 16 29 235 0 236 0 12 -33z m328 18 c-35 -27
-130 -57 -194 -62 -55 -5 -66 -3 -86 16 -13 13 -26 31 -29 42 -5 18 2 19 161
19 149 -1 165 -2 148 -15z m1296 -94 c5 -18 6 -36 3 -39 -3 -4 -136 -8 -294
-10 l-288 -4 -6 23 c-17 62 -34 58 271 62 152 1 283 2 291 2 8 0 19 -15 23
-34z m-3172 12 c-1 -43 -7 -45 -286 -57 -148 -7 -270 -12 -271 -11 -1 0 0 18
4 38 l6 36 136 4 c399 9 411 8 411 -10z m1484 -2 c80 -5 90 -8 97 -28 l8 -23
-299 0 c-165 0 -300 2 -300 5 0 4 7 20 16 37 l16 30 186 -7 c103 -4 227 -10
276 -14z m-1498 -73 c-3 -7 -7 -25 -10 -40 l-6 -28 -274 0 -274 0 7 28 c8 31
-19 27 286 41 267 13 275 13 271 -1z m1614 -33 l0 -35 -310 0 -310 0 0 35 0
35 310 0 310 0 0 -35z m1594 15 c3 -11 9 -29 12 -40 5 -20 1 -20 -294 -20
-322 0 -312 -2 -312 51 0 18 11 19 208 22 114 1 246 3 294 5 79 2 87 0 92 -18z
m-3234 -100 c0 -17 -6 -32 -12 -35 -7 -2 -134 -6 -281 -10 l-269 -7 7 34 c4
18 9 36 12 41 2 4 125 7 274 7 l269 0 0 -30z m1636 -2 c-3 -17 -8 -33 -9 -35
-8 -8 -575 -15 -579 -7 -3 5 -9 24 -13 42 l-7 32 307 0 308 0 -7 -32z m1626
-3 c4 -16 4 -32 0 -35 -4 -3 -140 -4 -303 -2 l-297 3 -4 30 c-3 16 -2 31 1 34
2 3 137 4 300 3 l295 -3 8 -30z m-3276 -71 c-3 -9 -6 -24 -6 -35 0 -18 -11
-19 -280 -19 -167 0 -280 4 -280 9 0 5 4 21 10 35 l10 26 276 0 c248 0 276 -2
270 -16z m1629 -6 c-15 -49 -17 -50 -283 -52 l-250 -3 -11 24 c-6 13 -11 28
-11 33 0 9 98 13 408 18 l153 2 -6 -22z m1664 -8 l10 -30 -67 0 c-37 -1 -173
-5 -302 -10 -129 -4 -236 -7 -237 -7 0 1 -4 19 -8 40 l-7 37 300 0 300 0 11
-30z m-3311 -65 c2 -2 -1 -18 -6 -36 l-8 -34 -283 -3 c-267 -2 -283 -1 -276
15 3 10 9 30 12 45 l5 27 277 -6 c152 -3 277 -7 279 -8z m1612 10 c0 -3 -12
-23 -26 -45 l-27 -40 -198 0 -197 0 -21 34 c-12 18 -21 36 -21 39 0 3 97 6
216 5 118 0 218 3 221 6 8 7 53 8 53 1z m1725 -26 c4 -17 4 -33 2 -36 -3 -3
-139 -8 -302 -11 -319 -5 -314 -6 -315 45 0 22 1 23 193 26 105 1 242 3 304 5
l111 2 7 -31z m26 -86 c5 -14 8 -32 5 -38 -3 -9 -90 -14 -306 -19 -166 -4
-304 -5 -307 -2 -3 2 -8 20 -13 40 l-8 36 222 3 c121 1 260 3 309 5 87 2 88 2
98 -25z m-3386 -25 c-4 -18 -8 -34 -9 -34 0 -1 -130 -4 -287 -7 l-287 -6 10
39 10 40 285 0 285 0 -7 -32z m1559 20 c-27 -48 -32 -50 -171 -47 -131 3 -133
3 -160 31 l-27 28 183 0 c143 0 181 -3 175 -12z m-107 -66 l52 -7 -35 -52
c-19 -29 -39 -55 -44 -58 -8 -5 -150 109 -150 120 0 7 115 4 177 -3z m1965
-26 c4 -17 6 -32 3 -34 -5 -6 -607 -23 -621 -18 -6 2 -14 18 -16 35 l-5 31 86
1 c47 1 178 5 291 9 270 9 252 11 262 -24z m-3432 -3 c-1 -40 -7 -41 -303 -45
-158 -1 -287 0 -287 4 0 4 4 18 10 32 l10 26 285 0 c265 0 285 -1 285 -17z
m3457 -87 c10 -34 10 -34 -26 -40 -20 -3 -165 -6 -322 -6 l-287 0 -5 28 c-3
15 -4 29 -2 31 2 1 122 6 267 10 145 4 286 8 314 9 49 2 51 1 61 -32z m-3479
-3 l-3 -28 -130 -6 c-71 -4 -205 -7 -297 -8 l-166 -1 11 35 10 35 289 0 289 0
-3 -27z m-12 -69 c-3 -9 -6 -24 -6 -33 0 -17 -22 -19 -301 -26 -165 -4 -302
-5 -305 -3 -2 3 1 19 7 36 l11 31 151 4 c438 8 450 8 443 -9z m3519 -15 c4
-17 5 -32 3 -33 -1 -2 -148 -6 -324 -9 l-322 -6 -6 22 c-13 48 -22 47 277 50
155 1 301 3 324 5 39 2 42 0 48 -29z m22 -64 c1 -5 -7 -22 -20 -37 l-22 -27
-299 -7 c-321 -7 -315 -8 -316 44 0 19 6 22 38 23 101 4 579 16 596 15 11 -1
21 -5 23 -11z m-3562 -27 c-4 -18 -8 -34 -10 -36 -1 -1 -140 -5 -309 -9 -222
-4 -306 -3 -306 5 0 6 5 22 11 36 13 29 21 29 432 34 l189 2 -7 -32z m-19 -90
c-3 -17 -8 -33 -10 -35 -4 -4 -630 -30 -635 -26 -2 1 3 20 10 40 l15 38 109 6
c61 3 202 6 314 7 l204 2 -7 -32z m3508 7 c-9 -14 -24 -30 -33 -34 -9 -5 -117
-13 -241 -18 -315 -11 -284 -15 -291 29 l-6 37 141 4 c78 1 210 4 294 5 l152
2 -16 -25z m-3524 -87 c-1 -53 5 -52 -345 -56 l-327 -5 16 32 17 31 92 1 c50
1 160 5 242 9 299 13 305 13 305 -12z m3410 -15 l-44 -38 -185 -5 c-103 -3
-189 -3 -193 0 -4 3 -8 19 -10 35 l-3 30 140 5 c77 3 185 7 239 8 l100 2 -44
-37z m-3430 -75 c0 -49 4 -49 -354 -55 l-337 -6 17 36 17 37 176 3 c522 8 481
10 481 -15z m3340 -9 c-59 -47 -78 -52 -198 -47 -117 4 -131 10 -132 51 0 16
15 17 178 17 l177 0 -25 -21z m-3359 -91 l-7 -33 -347 -3 c-191 -1 -347 0
-347 2 0 3 4 16 10 30 l9 25 153 4 c84 1 239 4 344 5 l191 2 -6 -32z m3182 25
l68 -6 -43 -29 c-36 -24 -51 -28 -98 -26 -52 3 -54 4 -61 36 -6 31 -6 32 30
32 20 0 67 -3 104 -7z m-3437 -83 l244 0 -7 -32 c-3 -18 -9 -36 -12 -41 -4 -4
-170 -6 -368 -5 l-361 3 26 44 26 44 104 -7 c58 -3 215 -6 348 -6z m3384 -4
c0 -2 -12 -11 -26 -21 -22 -14 -28 -15 -35 -4 -15 24 -10 29 26 29 19 0 35 -2
35 -4z m-3164 -112 c-3 -9 -6 -22 -6 -30 0 -12 -59 -14 -380 -14 l-381 0 16
30 16 30 370 0 c334 0 371 -2 365 -16z m-16 -76 c0 -7 -3 -23 -6 -35 l-6 -23
-395 0 c-217 0 -393 3 -391 8 2 4 10 19 17 35 l14 27 384 0 c300 0 383 -3 383
-12z m-20 -96 l0 -29 -227 -6 c-126 -4 -316 -10 -423 -14 l-194 -6 22 34 21
34 343 5 c189 3 369 6 401 8 57 2 57 2 57 -26z m-2152 -41 c12 -8 -11 -10 -80
-11 -95 0 -130 13 -70 26 15 3 31 7 37 8 15 4 94 -13 113 -23z m2140 -48 l-3
-38 -437 -3 c-241 -1 -438 1 -438 5 0 5 8 18 18 31 17 23 23 23 262 31 135 4
325 9 423 9 l178 2 -3 -37z m-2053 -14 l30 -29 -96 0 c-53 0 -144 3 -203 7
l-107 6 28 30 28 29 145 -6 c143 -7 145 -7 175 -37z m7610 31 c12 -6 -20 -7
-85 -3 -58 3 -107 7 -109 9 -9 8 175 2 194 -6z m-11 -25 c84 -6 136 -24 136
-46 0 -5 -92 -9 -205 -9 -117 0 -205 4 -205 9 0 5 14 21 31 35 28 24 37 26 92
21 34 -2 102 -7 151 -10z m-7667 -52 c111 -6 112 -6 124 -35 6 -16 8 -32 5
-36 -10 -9 -506 -16 -506 -7 0 4 10 25 22 46 l22 39 110 0 c61 0 161 -3 223
-7z m2041 -1 c71 -4 72 -4 72 -32 0 -27 -2 -28 -62 -33 -89 -7 -878 -9 -878
-2 0 4 12 22 27 41 l26 35 371 -3 c204 -1 404 -4 444 -6z m5795 -57 c9 -20 17
-38 17 -40 0 -3 -112 -5 -250 -5 -137 0 -250 3 -250 7 0 4 5 22 12 40 l12 33
221 0 221 0 17 -35z m-5723 -58 c0 -35 -1 -36 -42 -41 -24 -3 -256 -7 -516
-10 l-474 -5 18 22 c57 69 1 62 533 66 l481 3 0 -35z m-1970 -13 l0 -37 -82 6
c-46 4 -169 7 -274 7 l-191 0 4 25 c6 27 1 27 401 33 l142 2 0 -36z m7722 -8
c4 -6 8 -19 8 -28 0 -17 -19 -18 -270 -18 -259 0 -270 1 -270 19 0 53 -8 52
269 45 168 -5 259 -11 263 -18z m-7726 -53 c-18 -66 6 -60 -224 -56 -114 2
-235 6 -269 9 -62 5 -63 6 -63 35 l0 29 281 0 c262 0 280 -1 275 -17z m1989
-14 c4 -17 5 -32 3 -34 -1 -2 -257 -6 -568 -10 l-565 -7 33 33 32 34 448 5
c246 3 484 7 529 8 l81 2 7 -31z m5759 -30 c3 -17 3 -35 0 -40 -3 -5 -124 -9
-269 -9 l-265 0 -6 28 c-3 15 -7 33 -10 40 -3 9 56 12 270 12 l274 0 6 -31z
m-7776 -34 c2 -2 -11 -19 -28 -39 l-32 -36 -228 0 c-250 0 -240 -3 -240 61 l0
30 263 -7 c144 -4 263 -8 265 -9z m2059 -35 l21 -40 -651 0 -652 1 39 32 40
32 230 5 c127 3 393 7 591 8 l360 2 22 -40z m116 -2 c34 -23 101 -63 150 -89
74 -39 85 -47 66 -52 -13 -4 -50 -3 -82 0 -64 7 -134 45 -169 93 -18 25 -41
90 -32 90 3 0 33 -19 67 -42z m5597 -18 l0 -30 -250 0 c-236 0 -250 1 -260 19
-5 11 -10 22 -10 25 0 5 57 7 408 14 l112 2 0 -30z m-5628 -80 l48 -38 -333 5
c-182 3 -530 8 -772 11 l-440 7 54 31 54 30 671 -4 671 -4 47 -38z m-2237 30
c-3 -5 -15 -10 -26 -10 -24 0 -24 -17 -1 -43 17 -20 16 -20 -77 -13 -52 3
-138 6 -191 6 l-97 0 -10 35 -11 35 210 0 c137 0 207 -3 203 -10z m6659 -35
l58 -45 -279 0 c-154 0 -490 -3 -747 -7 l-467 -6 21 36 22 37 186 1 c149 1
951 21 1113 27 28 2 47 -7 93 -43z m1205 29 c2 -2 0 -18 -5 -36 l-9 -32 -200
3 c-180 2 -201 5 -224 22 -13 11 -30 27 -37 37 -11 16 3 17 230 14 132 -2 243
-5 245 -8z m-7836 -88 c12 -8 33 -17 47 -20 14 -3 50 -12 80 -20 l55 -14 -136
-1 c-75 -1 -196 -4 -270 -7 l-134 -6 -23 41 -23 41 191 0 c149 0 196 -3 213
-14z m4803 -27 c80 -65 44 -62 765 -60 l656 2 6 -28 c3 -15 3 -30 0 -33 -2 -3
-327 -5 -720 -5 l-716 0 -12 35 c-14 41 -29 120 -22 120 2 0 22 -14 43 -31z
m3009 9 c-4 -13 -10 -26 -14 -30 -3 -3 -117 -8 -252 -10 l-247 -3 57 32 56 32
203 1 203 0 -6 -22z m-1045 -12 l44 -24 -414 -6 c-228 -3 -612 -8 -852 -10
l-437 -5 33 29 33 30 229 3 c126 1 474 3 774 4 l545 2 45 -23z m-4140 -38 c0
-7 -3 -23 -6 -36 l-6 -22 -732 -1 c-402 0 -1038 -3 -1414 -6 -375 -3 -707 -2
-737 2 -40 5 -58 12 -66 27 -6 11 -9 21 -7 23 4 4 1840 21 2511 23 360 2 457
-1 457 -10z m4425 -19 c22 0 194 3 383 7 230 4 342 3 342 -4 0 -5 -9 -20 -19
-33 l-19 -24 -738 -3 c-790 -3 -754 -6 -754 46 l0 23 383 -5 c210 -3 400 -6
422 -7z m-5922 -94 l-17 -35 -686 0 -686 0 -22 30 c-12 16 -22 32 -22 35 0 3
326 5 725 5 l725 0 -17 -35z m1462 3 l-13 -33 -717 -3 c-681 -2 -717 -1 -710
15 4 10 10 26 12 36 5 16 48 17 724 17 l718 0 -14 -32z m5135 14 c0 -5 -11
-19 -26 -32 l-25 -24 -679 -4 c-374 -3 -691 -2 -705 2 -18 5 -25 13 -25 31 l0
25 528 3 c290 1 618 3 730 5 111 1 202 -2 202 -6z m-1482 -33 l3 -26 -248 -6
c-136 -4 -451 -10 -699 -13 l-450 -7 -22 34 -21 34 502 5 c276 3 599 5 717 5
l215 0 3 -26z m-5158 -42 c0 -2 -23 -18 -51 -37 l-51 -32 -579 4 -579 4 -33
32 -32 32 663 0 c364 0 662 -1 662 -3z m1459 -14 c-7 -10 -25 -28 -39 -40 -24
-21 -33 -22 -220 -23 -270 0 -361 8 -368 32 -6 24 -22 23 -22 -2 0 -20 -7 -20
-390 -20 -378 0 -390 1 -390 19 0 54 -48 51 727 51 680 0 715 -1 702 -17z
m5111 12 c0 -2 -21 -20 -46 -40 l-47 -35 -591 0 -591 0 -40 33 -39 32 459 5
c253 3 558 6 678 8 119 1 217 0 217 -3z m-1400 -40 l0 -35 -137 0 c-76 0 -240
-3 -365 -7 -225 -6 -228 -5 -228 15 0 11 -3 27 -6 36 -6 17 10 17 549 24 l187
2 0 -35z m-760 -10 l0 -35 -122 0 c-68 0 -191 -3 -275 -7 l-152 -6 -42 34 -43
34 184 5 c102 3 245 7 318 8 l132 2 0 -35z m-4701 -35 l154 0 -44 -23 c-24
-13 -70 -34 -101 -46 -58 -23 -60 -23 -445 -19 l-388 3 -58 39 c-31 21 -60 43
-64 49 -4 7 111 8 393 4 219 -4 468 -7 553 -7z m759 0 l333 0 -6 -22 c-14 -47
-13 -46 -392 -54 l-363 -7 0 24 c0 13 -3 35 -7 48 -6 24 -6 24 48 18 30 -4
204 -7 387 -7z m884 -20 c-33 -27 -122 -58 -230 -81 -102 -21 -182 -16 -266
16 -43 17 -44 17 -33 51 l10 34 271 0 c268 -1 271 -1 248 -20z m3818 -19 c0
-22 -3 -42 -8 -45 -4 -2 -168 -8 -365 -12 l-357 -7 0 46 0 47 273 2 c149 2
314 4 365 6 l92 2 0 -39z m-752 -1 c2 -14 -4 -34 -12 -45 -12 -17 -29 -20
-148 -23 -148 -5 -213 7 -322 56 l-61 27 200 5 c346 9 340 9 343 -20z m1967
-5 c-33 -19 -75 -38 -93 -41 -18 -4 -219 -5 -445 -2 l-412 4 -47 28 c-27 15
-51 32 -54 37 -3 5 222 9 553 9 l558 -1 -60 -34z m-5652 -85 l-28 -40 -312 0
-312 0 -16 30 c-8 16 -15 34 -15 40 0 7 114 10 356 10 l355 0 -28 -40z m-1244
19 c114 -1 113 -1 -49 -38 -172 -39 -396 -25 -482 30 l-33 21 229 -6 c126 -3
277 -6 335 -7z m6501 4 c218 -6 232 -8 190 -20 -193 -57 -471 -54 -643 7 l-52
19 135 0 c74 1 241 -2 370 -6z m-834 -23 c-3 -11 -9 -29 -12 -40 -5 -19 -14
-20 -340 -20 l-334 0 -10 26 c-6 14 -10 29 -10 34 0 10 118 14 478 18 229 2
233 2 228 -18z m-4481 -74 c-37 -55 -43 -57 -305 -49 l-241 6 -19 28 c-11 15
-20 30 -20 33 0 3 135 6 300 6 l300 0 -15 -24z m4455 -1 c0 -4 -7 -19 -15 -35
-15 -29 -19 -30 -83 -31 -37 0 -164 -4 -282 -8 l-215 -8 -27 31 c-15 17 -27
34 -28 38 0 4 105 9 233 11 127 1 274 3 325 5 50 1 92 0 92 -3z m-4552 -75 c9
-4 0 -18 -32 -44 l-46 -37 -159 7 c-148 6 -160 8 -170 28 -6 12 -18 31 -27 43
l-16 22 219 -6 c120 -3 224 -9 231 -13z m4492 -48 l-19 -39 -208 -6 -208 -6
-45 37 -45 37 140 5 c77 3 199 7 272 8 l131 2 -18 -38z m-4612 -48 c23 -5 22
-6 -17 -34 -35 -26 -49 -30 -103 -29 -86 1 -109 10 -130 45 l-18 31 122 -4
c68 -2 134 -6 146 -9z m4561 -43 c-25 -46 -42 -51 -171 -51 -87 0 -90 1 -139
38 l-50 37 183 5 c101 3 187 7 191 8 5 1 -2 -16 -14 -37z m-4680 -37 l31 -6
-42 -38 -43 -38 -22 37 c-12 20 -23 39 -23 44 0 9 56 9 99 1z m4622 -52 c-40
-56 -44 -57 -112 -19 -71 40 -67 43 59 46 l73 1 -20 -28z"/>
<path d="M2888 6733 c-8 -10 -27 -40 -42 -66 -49 -86 -207 -167 -297 -153 -49
8 -52 -11 -4 -20 47 -8 88 0 161 35 80 38 136 89 174 159 31 57 34 75 8 45z"/>
<path d="M1427 6609 c25 -43 132 -141 175 -162 47 -22 103 -34 95 -20 -4 6
-22 14 -41 17 -44 8 -157 94 -198 151 -38 51 -58 60 -31 14z"/>
<path d="M7357 6763 c-2 -5 -5 -35 -6 -68 -3 -115 -98 -271 -209 -345 -32 -21
-40 -30 -26 -30 11 0 52 27 91 59 60 51 77 73 117 153 38 75 49 108 53 160 4
41 2 68 -5 72 -6 3 -13 3 -15 -1z"/>
<path d="M5790 6711 c0 -30 135 -89 263 -115 86 -18 207 -21 207 -6 0 6 -28
10 -65 10 -119 0 -296 47 -362 96 -34 26 -43 29 -43 15z"/>
<path d="M6964 5902 c0 -78 -20 -144 -77 -257 -34 -67 -41 -92 -45 -157 -3
-50 -1 -78 6 -78 5 0 11 33 14 73 3 59 10 86 36 136 58 110 83 190 85 263 0
38 -3 72 -9 78 -7 7 -10 -13 -10 -58z"/>
<path d="M5720 5853 c0 -16 84 -105 119 -128 51 -31 169 -73 244 -84 76 -12
198 -2 205 18 3 9 -2 11 -17 6 -11 -3 -58 -7 -103 -7 -157 -2 -328 65 -396
153 -35 45 -52 59 -52 42z"/>
<path d="M4450 5912 c0 -44 62 -142 131 -206 38 -36 75 -66 81 -66 7 0 -22 33
-63 73 -72 69 -129 157 -129 199 0 10 -4 18 -10 18 -5 0 -10 -8 -10 -18z"/>
<path d="M7010 4461 c0 -5 6 -16 13 -23 19 -19 92 -127 111 -165 46 -92 137
-345 161 -449 15 -66 31 -123 36 -128 32 -35 -35 233 -98 389 -72 180 -94 224
-157 312 -48 68 -66 86 -66 64z"/>
<path d="M7810 3365 c0 -5 9 -23 21 -40 58 -86 106 -215 122 -330 3 -23 4 -20
6 14 2 60 -24 153 -67 238 -36 72 -81 137 -82 118z"/>
<path d="M6890 2223 c-105 -163 -319 -364 -540 -509 -418 -273 -912 -444
-1505 -521 -199 -25 -684 -25 -875 0 -352 48 -611 124 -877 258 -156 78 -203
92 -90 27 260 -151 582 -251 967 -303 164 -22 533 -30 715 -16 500 40 934 154
1351 355 263 128 465 263 640 428 158 151 325 373 275 367 -3 0 -31 -39 -61
-86z"/>
<path d="M1851 4940 c21 -17 55 -65 80 -112 42 -80 44 -86 42 -163 -2 -59 1
-75 8 -62 6 10 11 46 11 80 1 50 -5 75 -31 128 -35 74 -104 159 -129 159 -11
0 -4 -10 19 -30z"/>
<path d="M1117 2824 c-52 -12 -158 -71 -173 -95 -10 -17 9 -9 66 30 90 60 195
73 360 44 59 -10 25 8 -42 23 -79 17 -137 16 -211 -2z"/>
</g>
</svg>
